{"title":"Rebel in the Rye 2017 1080p BluRay 6CH AAC x264 - EiE","magnet":"magnet:?xt=urn:btih:419ee83a1c1b3e0db4709303b456f65c031b40b0&dn=Rebel+in+the+Rye+2017+1080p+BluRay+6CH+AAC+x264+-+EiE&tr=udp%3A%2F%2Ftracker.leechers-paradise.org%3A6969&tr=udp%3A%2F%2Fzer0day.ch%3A1337&tr=udp%3A%2F%2Fopen.demonii.com%3A1337&tr=udp%3A%2F%2Ftracker.coppersurfer.tk%3A6969&tr=udp%3A%2F%2Fexodus.desync.com%3A6969","uploader":"samcode4u","categoryP":"video","categoryS":"hd___movies","size":"1823831018","seeders":"2","leechers":"57","description":"Rebel in the Rye 2017 1080p BluRay 6CH AAC x264 - EiE\r\n <a href=\"\nhttps://www.imdb.com/title/tt4986134/\" rel=\"nofollow\" target=\"_NEW\">\nhttps://www.imdb.com/title/tt4986134/</a>\r\n\r\n\r\nScreenshots:\r\n <a href=\"\nhttps://lensdump.com/i/OxZhr\" rel=\"nofollow\" target=\"_NEW\">\nhttps://lensdump.com/i/OxZhr</a>\r\n <a href=\"\nhttps://lensdump.com/i/OxIM7\" rel=\"nofollow\" target=\"_NEW\">\nhttps://lensdump.com/i/OxIM7</a>\r\n <a href=\"\nhttps://lensdump.com/i/Oxr6F\" rel=\"nofollow\" target=\"_NEW\">\nhttps://lensdump.com/i/Oxr6F</a>\r\n <a href=\"\nhttps://lensdump.com/i/Oxtz3\" rel=\"nofollow\" target=\"_NEW\">\nhttps://lensdump.com/i/Oxtz3</a>\r\n\r\n\r\nVideo\r\nID                                       : 1\r\nFormat                                   : AVC\r\nFormat/Info                              : Advanced Video Codec\r\nFormat settings                          : CABAC / 4 Ref Frames\r\nFormat settings, CABAC                   : Yes\r\nFormat settings, RefFrames               : 4 frames\r\nCodec ID                                 : avc1\r\nCodec ID/Info                            : Advanced Video Coding\r\nDuration                                 : 1 h 49 min\r\nBit rate                                 : 1 997 kb/s\r\nMaximum bit rate                         : 16.4 Mb/s\r\nWidth                                    : 1 912 pixels\r\nHeight                                   : 1 032 pixels\r\nDisplay aspect ratio                     : 1.85:1\r\nFrame rate mode                          : Constant\r\nFrame rate                               : 23.976 (24000/1001) FPS\r\nColor space                              : YUV\r\nChroma subsampling                       : 4:2:0\r\nBit depth                                : 8 bits\r\nScan type                                : Progressive\r\nBits/(Pixel*Frame)                       : 0.042\r\nStream size                              : 1.52 GiB (89%)\r\n\r\nAudio\r\nID                                       : 2\r\nFormat                                   : AAC\r\nFormat/Info                              : Advanced Audio Codec\r\nFormat profile                           : LC\r\nCodec ID                                 : mp4a-40-2\r\nDuration                                 : 1 h 49 min\r\nBit rate mode                            : Variable\r\nBit rate                                 : 231 kb/s\r\nMaximum bit rate                         : 322 kb/s\r\nChannel(s)                               : 6 channels\r\nChannel positions                        : Front: L C R, Side: L R, LFE\r\nSampling rate                            : 48.0 kHz\r\nFrame rate                               : 46.875 FPS (1024 SPF)\r\nCompression mode                         : Lossy\r\nStream size                              : 180 MiB (10%)\r\nLanguage                                 : English","last_updated":"2017-12-29T12:05:28.759Z","parsed":{"xt":"urn:btih:419ee83a1c1b3e0db4709303b456f65c031b40b0","dn":"Rebel in the Rye 2017 1080p BluRay 6CH AAC x264 - EiE","tr":["udp://exodus.desync.com:6969","udp://open.demonii.com:1337","udp://tracker.coppersurfer.tk:6969","udp://tracker.leechers-paradise.org:6969","udp://zer0day.ch:1337"],"infoHash":"419ee83a1c1b3e0db4709303b456f65c031b40b0","infoHashBuffer":{"type":"Buffer","data":[65,158,232,58,28,27,62,13,180,112,147,3,180,86,246,92,3,27,64,176]},"name":"Rebel in the Rye 2017 1080p BluRay 6CH AAC x264 - EiE","announce":["udp://exodus.desync.com:6969","udp://open.demonii.com:1337","udp://tracker.coppersurfer.tk:6969","udp://tracker.leechers-paradise.org:6969","udp://zer0day.ch:1337"],"urlList":[]}}